<svg xmlns:xlink="http://www.w3.org/1999/xlink" xmlns="http://www.w3.org/2000/svg" viewBox="0 0 64 64" width="172"  height="172" ><g data-name="Color copy"><polygon fill="#EDB88E" points="3 61 7 53 18 53 21 50 35 50 40 38 52 38 61 29 61 61 3 61"></polygon><polygon fill="#DA9367" points="3 61 9 56 19 59 24 53 39 52 43 42 52 43 61 40 61 61 3 61"></polygon><polygon fill="#00B4D8" points="19.484 35.222 11.484 35.222 12.484 41.222 8.312 45.222 10.484 48.222 16.484 44.222 17.484 39.222 22.484 41.222 23.484 46 27.484 47 26.484 38.222 19.484 35.222"></polygon><path fill="#0096C7" d="M27.48,47l-4-1-1-4.78-5-2L15.4,42.39a2.721,2.721,0,0,1-1.05.94,2.693,2.693,0,0,0-1.37,3.22l-2.5,1.67-2.17-3,4.17-4-1-6h8l1.52.65v.22a3.077,3.077,0,0,0,1.71,2.76l.58.3A3.077,3.077,0,0,1,25,41.91a3.092,3.092,0,0,0,.9,2.19,3.027,3.027,0,0,0,1.34.78Z"></path><path fill="#F9DBAF" d="M15.484,25.222h0a3,3,0,0,1-3-3v-3h6v3A3,3,0,0,1,15.484,25.222Z"></path><path fill="#00B4D8" d="M15.484,15.222h0a3,3,0,0,0-3,3v1h6v-1A3,3,0,0,0,15.484,15.222Z"></path><path fill="#48CAE4" d="M27.942,21.194a1.853,1.853,0,0,0-2.51.43l-1.948,2.6-4,1h-8l-6,1L3.11,32.552a1.719,1.719,0,0,0,1.066,2.234h0a1.719,1.719,0,0,0,2.017-.746l2.291-3.818h3v5h8V29.936l6-1.714,2.972-4.458A1.854,1.854,0,0,0,27.942,21.194Z"></path><path fill="#FCEA42" d="M10.434,53l-4.95-4.95,2.828-2.828,2.122,2.121a4,4,0,0,1,0,5.657Z"></path><path fill="#FCEA42" d="M30.484,50h-7V46h3a4,4,0,0,1,4,4Z"></path><path fill="#EDB88E" d="M18.48,20.25,14,21a3,3,0,0,0,3,3,2.681,2.681,0,0,0,1.02-.19,3,3,0,0,1-5.54-1.59v-3h6Z"></path><path fill="#FDC741" d="M30.48,50h-7V46H25a2.006,2.006,0,0,0,2,2h2.94A3.989,3.989,0,0,1,30.48,50Z"></path><path fill="#FDC741" d="M11.25,51.82A3.749,3.749,0,0,1,10.43,53L5.48,48.05l2.83-2.83,1.03,1.03a2.967,2.967,0,0,0,.27,3.92Z"></path><path fill="#00B4D8" d="M28.46,23.76l-2.98,4.46-6,1.72v5.28h-8v-5h-3L6.19,34.04a1.7,1.7,0,0,1-2.01.75,1.726,1.726,0,0,1-1.07-2.24l1.378-3.681L5.48,26.22l6-1h5.53a2.944,2.944,0,0,1-3.01.6V29a4,4,0,0,0,4,4V30.54a3,3,0,0,1,2.51-2.96l.8-.13a6.783,6.783,0,0,0,5.68-6.56,1.669,1.669,0,0,1,.95.3A1.864,1.864,0,0,1,28.46,23.76Z"></path><path fill="#0096C7" d="M18.48,18.22v1h-6v-1a2.98,2.98,0,0,1,1.58-2.64A2.986,2.986,0,0,0,17,18h1.47A1.62,1.62,0,0,1,18.48,18.22Z"></path><polygon fill="#F9DBAF" points="61 48 54 45 45 48 41 54 28 55 23 61 61 61 61 48"></polygon><path fill="#E9F1F2" d="M61,25V19H57.638a12.9,12.9,0,0,0-1.582-3.814l2.379-2.378L54.192,8.565l-2.378,2.379A12.911,12.911,0,0,0,48,9.362V6H42V9.362a12.911,12.911,0,0,0-3.814,1.582L35.808,8.565l-4.243,4.243,2.379,2.378A12.9,12.9,0,0,0,32.362,19H29v6h3.362a12.9,12.9,0,0,0,1.582,3.814l-2.379,2.378,4.243,4.243,2.378-2.379A12.9,12.9,0,0,0,42,34.638V38h6V34.638a12.9,12.9,0,0,0,3.814-1.582l2.378,2.379,4.243-4.243-2.379-2.378A12.9,12.9,0,0,0,57.638,25ZM45,29a7,7,0,1,1,7-7A7,7,0,0,1,45,29Z"></path><path fill="#D0D8DA" d="M58.01,30.76a18.963,18.963,0,0,1-11.72-1.88A6.8,6.8,0,0,1,45,29a7,7,0,0,1-7-7,6.8,6.8,0,0,1,.12-1.29A18.963,18.963,0,0,1,36.24,8.99l-.43-.43-4.25,4.25,2.38,2.38A13.223,13.223,0,0,0,32.36,19H29v6h3.36a13.223,13.223,0,0,0,1.58,3.81l-2.38,2.38,4.25,4.24,2.38-2.37A13.223,13.223,0,0,0,42,34.64V38h6V34.64a13.223,13.223,0,0,0,3.81-1.58l2.38,2.37,4.25-4.24Z"></path><path fill="#B8BEBF" d="M55,22A10,10,0,1,0,45,32,10,10,0,0,0,55,22ZM45,29a7,7,0,1,1,7-7A7,7,0,0,1,45,29Z"></path><path fill="#93999A" d="M46.29,28.88A6.8,6.8,0,0,1,45,29a7,7,0,0,1-7-7,6.8,6.8,0,0,1,.12-1.29,18.572,18.572,0,0,1-1.55-4.08A9.856,9.856,0,0,0,35,22,10,10,0,0,0,45,32a9.856,9.856,0,0,0,5.37-1.57A18.572,18.572,0,0,1,46.29,28.88Z"></path><polygon fill="#EDB88E" points="61 50 55 51 47 50 42 58 29 57 23 61 61 61 61 50"></polygon></g></svg>