<!--<div class="css-12vjeua" style="background-color: rgb(255, 255, 255);">

</div>-->
<svg class="css-c68jf5" viewBox="0 0 200 91" xmlns="http://www.w3.org/2000/svg">

    <g transform="matrix(2.007 0 0 2.007 -2.1465 -6.9869)" fill="#9da8bf" featurekey="nameFeature-0">
        <path d="m3.7166 12.005h7.1658v4.2246h-7.246l1.0963 0.80214c-0.10695 4.7059-0.10695 14.064 0 18.743h6.1497v4.2246h-7.1658c-1.4973 0-2.6471-1.1497-2.6471-2.6471v-22.701c0-1.4973 1.1497-2.6471 2.6471-2.6471zm11.577 23.797h4.3316v-19.545h-5.4011l1.0695 0.82888v18.717zm7.9943-21.123v22.701c0 1.4973-1.1497 2.6471-2.6471 2.6471h-6.3636c-1.4973 0-2.6471-1.1497-2.6471-2.6471v-22.701c0-1.4171 1.1497-2.6471 2.6471-2.6471h6.3636c1.4973 0 2.6471 1.2299 2.6471 2.6471zm0.93622-2.674h5.2406l3.4225 15.267v-15.241h3.6631v27.968h-4.5722l-3.3957-15.187v15.214h-3.6898v-27.193zm17.246 4.198h-3.984v-4.2513h11.658v4.2513h-5.0802l1.0963 0.80214v22.968h-3.6898v-23.77zm9.1978-3.342-0.66845-0.82888h10.508v4.2246h-7.246l1.0963 0.82888v6.8182h4.3316v4.2513h-5.4278l1.0963 0.80214v6.8449h6.1497v4.2246h-9.8396v-4.2246-7.6471-4.2513-11.043zm10.695-0.856h5.2406l3.4225 15.267v-15.241h3.6631v27.968h-4.5722l-3.3957-15.187v15.214h-3.6898v-27.193zm18.128 23.797h4.3048v-19.545h-5.4011l1.0963 0.82888v18.717zm7.9948-21.123v22.701c0 1.4973-1.1765 2.6471-2.6738 2.6471h-9.0107v-4.2246-22.941l-0.66845-0.82888h9.6791c1.4706 0 2.6738 1.2299 2.6738 2.6471zm5.2404 21.123h4.3316v-19.545h-5.4011l1.0695 0.82888v18.717zm7.9943-21.123v22.701c0 1.4973-1.1497 2.6471-2.6471 2.6471h-6.3636c-1.4973 0-2.6471-1.1497-2.6471-2.6471v-22.701c0-1.4171 1.1497-2.6471 2.6471-2.6471h6.3636c1.4973 0 2.6471 1.2299 2.6471 2.6471z"/>
    </g>
    <g fill="#3f8383" featurekey="nameContainer">
        <rect width="1" height="1" opacity="0"/>
        <rect y="86" width="200" height="5"/>
    </g>
</svg>
