<svg xmlns:xlink="http://www.w3.org/1999/xlink" xmlns="http://www.w3.org/2000/svg" viewBox="0 0 64 64" width="172"  height="172" ><g data-name="24-customer"><path fill="#19CFFC" d="M57,3V9H7V3A2.006,2.006,0,0,1,9,1H55A2.006,2.006,0,0,1,57,3Z"></path><path fill="#80DBFF" d="M55,1H9A2.006,2.006,0,0,0,7,3V7A2.006,2.006,0,0,1,9,5H55a2.006,2.006,0,0,1,2,2V3A2.006,2.006,0,0,0,55,1Z"></path><path fill="#F0F0F0" d="M57,9V37a2.006,2.006,0,0,1-2,2H38l-6,6-6-6H9a2.006,2.006,0,0,1-2-2V9Z"></path><path fill="#D9D9D9" d="M55,36H38l-6,6-6-6H9a2.006,2.006,0,0,1-2-2v3a2.006,2.006,0,0,0,2,2H26l6,6,6-6H55a2.006,2.006,0,0,0,2-2V34A2.006,2.006,0,0,1,55,36Z"></path><path fill="#19CFFC" d="M7,63H1V49H5S7,57,7,63Z"></path><path fill="#CFF9FF" d="M12.22,58.85l.9,2.11L14,63H7c0-6-2-14-2-14H8l1.22,2.85Z"></path><path fill="#FAA68E" d="M33,59l13.84-7.91A2.6,2.6,0,0,1,46.8,53L33.87,62s-14.91-2-17.89-2l-2.86.96-.9-2.11L15,57Z"></path><path fill="#FAA68E" d="M33.44,55.28,30,57l-8-2,1-2a12.677,12.677,0,0,0,6,2,2.768,2.768,0,0,0,2.18-.86Z"></path><path fill="#FFCDBE" d="M34.87,56l9.94-6a2.39,2.39,0,0,1,2.03,1.09L33,59,18.319,57.369a9.181,9.181,0,0,0-6.1,1.481h0l-3-7C10.44,51.01,16.52,47,21,47c5,0,11,5,11,5a3.476,3.476,0,0,1-.82,2.14A2.768,2.768,0,0,1,29,55a12.677,12.677,0,0,1-6-2h0a1.794,1.794,0,0,0,1.169,2.542L30,57l3.44-1.72Z"></path><path fill="#FFBEAA" d="M21,49c4.187,0,9.061,3.5,10.54,4.637A3.752,3.752,0,0,0,32,52s-6-5-11-5c-4.48,0-10.56,4.01-11.78,4.85l.666,1.555C11.924,52.077,17.075,49,21,49Z"></path><rect width="2" height="2" x="10" y="4" fill="#1EA1E3"></rect><rect width="2" height="2" x="14" y="4" fill="#1EA1E3"></rect><rect width="2" height="2" x="18" y="4" fill="#1EA1E3"></rect><rect width="2" height="2" x="44" y="12" fill="#6E6E6E"></rect><rect width="6" height="2" x="48" y="12" fill="#6E6E6E"></rect><rect width="10" height="2" x="44" y="16" fill="#6E6E6E"></rect><rect width="10" height="2" x="44" y="20" fill="#6E6E6E"></rect><rect width="2" height="2" x="10" y="12" fill="#6E6E6E"></rect><rect width="6" height="2" x="14" y="12" fill="#6E6E6E"></rect><rect width="10" height="2" x="10" y="16" fill="#6E6E6E"></rect><rect width="10" height="2" x="10" y="20" fill="#6E6E6E"></rect><rect width="2" height="2" x="45" y="34" fill="#6E6E6E"></rect><rect width="5" height="2" x="49" y="34" fill="#6E6E6E"></rect><rect width="2" height="2" x="10" y="34" fill="#6E6E6E"></rect><rect width="5" height="2" x="14" y="34" fill="#6E6E6E"></rect><path fill="#19CFFC" d="M6.652,58A84.874,84.874,0,0,0,5,49H3v5.348A3.652,3.652,0,0,0,6.652,58Z"></path><path fill="#4AB8F7" d="M3,54.348V49H1V63H7a42.125,42.125,0,0,0-.348-5h0A3.652,3.652,0,0,1,3,54.348Z"></path><path fill="#CFF9FF" d="M11.856,58,9.22,51.85,8,49H5a84.874,84.874,0,0,1,1.652,9Z"></path><path fill="#96E8FF" d="M13.12,60.96l-.9-2.11L11.856,58h-5.2A42.125,42.125,0,0,1,7,63h7Z"></path><path fill="#FFAC5A" d="M42,28v8H22V28l5-1.25V29a2.006,2.006,0,0,0,2,2h6a2.006,2.006,0,0,0,2-2V26.75Z"></path><path fill="#FC9942" d="M27,31a2.006,2.006,0,0,0,2,2h6a2.006,2.006,0,0,0,2-2V29a2.006,2.006,0,0,1-2,2H29a2.006,2.006,0,0,1-2-2Z"></path><polygon fill="#FC9942" points="37 26.75 37 28.75 42 30 42 28 37 26.75"></polygon><polygon fill="#FC9942" points="27 26.75 22 28 22 30 27 28.75 27 26.75"></polygon><path fill="#A37862" d="M40,12a31,31,0,0,0,2,10,24.207,24.207,0,0,1-6.68,1A6.012,6.012,0,0,0,38,18V15c-9,0-9-3-9-3a2.938,2.938,0,0,1-3,3v3a5.944,5.944,0,0,0,1.76,4.24,6.092,6.092,0,0,0,.92.76A24.207,24.207,0,0,1,22,22a32.518,32.518,0,0,0,1.63-6A23.505,23.505,0,0,0,24,12a8.012,8.012,0,0,1,7.27-7.97c.24-.02.48-.03.73-.03a8.014,8.014,0,0,1,5.66,2.34,8.115,8.115,0,0,1,2.08,3.62A8.031,8.031,0,0,1,40,12Z"></path><path fill="#966857" d="M23.63,18A23.505,23.505,0,0,0,24,14a8.012,8.012,0,0,1,7.27-7.97c.24-.02.48-.03.73-.03a8.014,8.014,0,0,1,5.66,2.34,8.115,8.115,0,0,1,2.08,3.62A8.031,8.031,0,0,1,40,14a29.088,29.088,0,0,0,1.376,8.181C41.774,22.075,42,22,42,22a31,31,0,0,1-2-10,8.031,8.031,0,0,0-.26-2.04,8.115,8.115,0,0,0-2.08-3.62A8.014,8.014,0,0,0,32,4c-.25,0-.49.01-.73.03A8.012,8.012,0,0,0,24,12a23.505,23.505,0,0,1-.37,4A32.518,32.518,0,0,1,22,22s.226.075.625.182A33.074,33.074,0,0,0,23.63,18Z"></path><path fill="#E09380" d="M37,26.75V29a2.006,2.006,0,0,1-2,2H29a2.006,2.006,0,0,1-2-2V26.75L30,26V23.65a5.889,5.889,0,0,0,4,0V26Z"></path><path fill="#FFCDBE" d="M35.32,23a6.066,6.066,0,0,1-6.64,0,6.092,6.092,0,0,1-.92-.76A5.944,5.944,0,0,1,26,18V15a2.938,2.938,0,0,0,3-3s0,3,9,3v3A6.012,6.012,0,0,1,35.32,23Z"></path><path fill="#FFBEAA" d="M29,12a2.938,2.938,0,0,1-3,3v2a2.938,2.938,0,0,0,3-3s0,3,9,3V15C29,15,29,12,29,12Z"></path><path d="M44.809,49a1,1,0,0,0-.517.144l-9.467,5.714L32.6,53.742A4.365,4.365,0,0,0,33,52a1,1,0,0,0-.359-.769C32.384,51.019,26.3,46,21,46c-4.008,0-9.033,2.884-11.333,4.353l-.748-1.747A1,1,0,0,0,8,48H1a1,1,0,0,0-1,1V63a1,1,0,0,0,1,1H14a1,1,0,0,0,.919-1.394l-.448-1.044,1.67-.56c3.222.064,17.455,1.97,17.6,1.989a.994.994,0,0,0,.7-.171l12.922-9a.991.991,0,0,0,.378-.506,3.265,3.265,0,0,0-.247-3.061A3.5,3.5,0,0,0,44.809,49ZM2,50H4.209A71.364,71.364,0,0,1,5.98,62H2ZM7.981,62a70.526,70.526,0,0,0-1.72-12h1.08l5.142,12Zm37.953-9.617L33.622,60.957C31.209,60.637,18.76,59,15.982,59a1.014,1.014,0,0,0-.318.052l-1.983.665-3.213-7.5C12.447,50.937,17.37,48,21,48c3.868,0,8.562,3.375,9.953,4.446A1.8,1.8,0,0,1,29,54a11.72,11.72,0,0,1-5.446-1.833l-1.109,1.665A13.6,13.6,0,0,0,29,56a3.944,3.944,0,0,0,2.3-.677l3.123,1.571a1,1,0,0,0,.966-.038l9.66-5.831a1.334,1.334,0,0,1,.831.4A1.259,1.259,0,0,1,45.934,52.383Z"></path><path d="M55,0H9A3,3,0,0,0,6,3V37a3,3,0,0,0,3,3H25.586l5.707,5.707a1,1,0,0,0,1.414,0L38.414,40H55a3,3,0,0,0,3-3V3A3,3,0,0,0,55,0ZM9,2H55a1,1,0,0,1,1,1V8H40.05a8.98,8.98,0,0,0-16.1,0H8V3A1,1,0,0,1,9,2ZM33.758,26.97,36,27.531V29a1,1,0,0,1-1,1H29a1,1,0,0,1-1-1V27.531l2.242-.561A1,1,0,0,0,31,26V24.92a6.29,6.29,0,0,0,2,0V26A1,1,0,0,0,33.758,26.97ZM29,32h6a3,3,0,0,0,3-3v-.969l3,.75V35H23V28.781l3-.75V29A3,3,0,0,0,29,32ZM27,18V15.874a3.936,3.936,0,0,0,2.4-1.647c1.207.859,3.45,1.651,7.6,1.76V18a5,5,0,0,1-10,0Zm11-4c-7.292,0-7.982-2-8-2h0a1,1,0,0,0-2,0,1.883,1.883,0,0,1-2,2,1,1,0,0,0-1,1v3a6.952,6.952,0,0,0,1.145,3.825,24.836,24.836,0,0,1-2.836-.5A30.875,30.875,0,0,0,25,12a7,7,0,0,1,14,0,30.908,30.908,0,0,0,1.691,9.323,24.478,24.478,0,0,1-2.837.5A6.954,6.954,0,0,0,39,18V15A1,1,0,0,0,38,14ZM55,38H38a1,1,0,0,0-.707.293L32,43.586l-5.293-5.293A1,1,0,0,0,26,38H9a1,1,0,0,1-1-1V10H23.232A8.971,8.971,0,0,0,23,12a30.177,30.177,0,0,1-1.929,9.629,1,1,0,0,0,.613,1.319A25.051,25.051,0,0,0,28.4,23.991c.194.118.395.225.6.324v.9L21.758,27.03A1,1,0,0,0,21,28v8a1,1,0,0,0,1,1H42a1,1,0,0,0,1-1V28a1,1,0,0,0-.758-.97L35,25.219v-.9c.206-.1.407-.206.6-.324a25.051,25.051,0,0,0,6.715-1.043,1,1,0,0,0,.613-1.319A30.177,30.177,0,0,1,41,12a8.971,8.971,0,0,0-.232-2H56V37A1,1,0,0,1,55,38Z"></path><rect width="2" height="2" x="10" y="4"></rect><rect width="2" height="2" x="14" y="4"></rect><rect width="2" height="2" x="18" y="4"></rect><rect width="2" height="2" x="44" y="12"></rect><rect width="6" height="2" x="48" y="12"></rect><rect width="10" height="2" x="44" y="16"></rect><rect width="10" height="2" x="44" y="20"></rect><rect width="2" height="2" x="10" y="12"></rect><rect width="6" height="2" x="14" y="12"></rect><rect width="10" height="2" x="10" y="16"></rect><rect width="10" height="2" x="10" y="20"></rect><rect width="2" height="2" x="45" y="34"></rect><rect width="5" height="2" x="49" y="34"></rect><rect width="2" height="2" x="10" y="34"></rect><rect width="5" height="2" x="14" y="34"></rect></g></svg>