<svg xmlns:xlink="http://www.w3.org/1999/xlink" xmlns="http://www.w3.org/2000/svg" viewBox="0 0 64 64" width="300"  height="300" ><path fill="#FFD961" d="M61,3v58H32V3H61z M57,47v-4c0-1.87-1.28-3.42-3.01-3.86c0-0.05,0.01-0.09,0.01-0.14	c0-2.05-1.54-3.72-3.53-3.95C49.78,33.83,48.5,33,47,33s-2.79,0.83-3.47,2.05C43.35,35.03,43.18,35,43,35c-2.21,0-4,1.79-4,4	c0,0.05,0.01,0.09,0.01,0.14C37.28,39.58,36,41.13,36,43v4c0,3.31,2.69,6,6,6v4h9v-4C54.31,53,57,50.31,57,47z"></path><path fill="#EF6A74" d="M57,43v4c0,3.31-2.69,6-6,6h-9c-3.31,0-6-2.69-6-6v-4H57z"></path><path fill="#F2F0EA" d="M57,43H36c0-1.87,1.28-3.42,3.01-3.86c0-0.05-0.01-0.09-0.01-0.14c0-2.21,1.79-4,4-4	c0.18,0,0.35,0.03,0.53,0.05C44.21,33.83,45.5,33,47,33s2.78,0.83,3.47,2.05C52.46,35.28,54,36.95,54,39c0,0.05-0.01,0.09-0.01,0.14	C55.72,39.58,57,41.13,57,43z"></path><rect width="9" height="4" x="42" y="53" fill="#EF6A74"></rect><rect width="29" height="58" x="3" y="3" fill="#FFD961"></rect><path fill="#292929" d="M61,2H3C2.447,2,2,2.447,2,3v58c0,0.553,0.447,1,1,1h58c0.553,0,1-0.447,1-1V3	C62,2.447,61.553,2,61,2z M4,4h27v56H4V4z M60,60H33V4h27V60z"></path><path fill="#292929" d="M41,53.92V57c0,0.553,0.447,1,1,1h9c0.553,0,1-0.447,1-1v-3.08c3.386-0.488,6-3.401,6-6.92v-4	c0-2.02-1.216-3.81-3.034-4.583c-0.247-2.103-1.811-3.828-3.891-4.279C50.142,32.808,48.621,32,47,32c-1.574,0-3.045,0.752-3.979,2	c-0.007,0-0.015,0-0.021,0c-2.56,0-4.677,1.934-4.966,4.417C36.215,39.19,35,40.98,35,43v4C35,50.519,37.614,53.432,41,53.92z M43,56v-2h7v2H43z M56,47c0,2.757-2.243,5-5,5h-9c-2.757,0-5-2.243-5-5v-3h19V47z M39.257,40.108	c0.442-0.112,0.753-0.512,0.753-0.969c0-0.063-0.005-0.121-0.01-0.14c0-1.654,1.346-3,3-3c0.087,0,0.171,0.013,0.256,0.024	l0.167,0.02c0.409,0.043,0.785-0.157,0.98-0.508C44.932,34.589,45.927,34,47,34c1.082,0,2.054,0.576,2.6,1.542	c0.157,0.278,0.438,0.465,0.755,0.501c1.508,0.175,2.646,1.446,2.646,2.919c-0.004,0.036-0.011,0.142-0.011,0.178	c0,0.457,0.311,0.856,0.753,0.969c0.989,0.252,1.755,0.976,2.082,1.892H37.175C37.502,41.084,38.268,40.361,39.257,40.108z"></path><rect width="13" height="2" x="11" y="7" fill="#292929"></rect><rect width="17" height="2" x="9" y="11" fill="#292929"></rect><rect width="12" height="2" x="7" y="18" fill="#292929"></rect><rect width="2" height="2" x="26" y="18" fill="#292929"></rect><rect width="2" height="2" x="22" y="18" fill="#292929"></rect><rect width="12" height="2" x="7" y="22" fill="#292929"></rect><rect width="2" height="2" x="26" y="22" fill="#292929"></rect><rect width="2" height="2" x="22" y="22" fill="#292929"></rect><rect width="12" height="2" x="7" y="26" fill="#292929"></rect><rect width="2" height="2" x="26" y="26" fill="#292929"></rect><rect width="2" height="2" x="22" y="26" fill="#292929"></rect><rect width="12" height="2" x="7" y="30" fill="#292929"></rect><rect width="2" height="2" x="26" y="30" fill="#292929"></rect><rect width="2" height="2" x="22" y="30" fill="#292929"></rect><rect width="12" height="2" x="36" y="11" fill="#292929"></rect><rect width="2" height="2" x="55" y="11" fill="#292929"></rect><rect width="2" height="2" x="51" y="11" fill="#292929"></rect><rect width="12" height="2" x="36" y="15" fill="#292929"></rect><rect width="2" height="2" x="55" y="15" fill="#292929"></rect><rect width="2" height="2" x="51" y="15" fill="#292929"></rect><rect width="12" height="2" x="36" y="19" fill="#292929"></rect><rect width="2" height="2" x="55" y="19" fill="#292929"></rect><rect width="2" height="2" x="51" y="19" fill="#292929"></rect><rect width="12" height="2" x="36" y="23" fill="#292929"></rect><rect width="2" height="2" x="55" y="23" fill="#292929"></rect><rect width="2" height="2" x="51" y="23" fill="#292929"></rect><rect width="12" height="2" x="7" y="34" fill="#292929"></rect><rect width="2" height="2" x="26" y="34" fill="#292929"></rect><rect width="2" height="2" x="22" y="34" fill="#292929"></rect><rect width="12" height="2" x="7" y="38" fill="#292929"></rect><rect width="2" height="2" x="26" y="38" fill="#292929"></rect><rect width="2" height="2" x="22" y="38" fill="#292929"></rect><rect width="12" height="2" x="7" y="42" fill="#292929"></rect><rect width="2" height="2" x="26" y="42" fill="#292929"></rect><rect width="2" height="2" x="22" y="42" fill="#292929"></rect><rect width="12" height="2" x="7" y="46" fill="#292929"></rect><rect width="2" height="2" x="26" y="46" fill="#292929"></rect><rect width="2" height="2" x="22" y="46" fill="#292929"></rect><rect width="12" height="2" x="7" y="50" fill="#292929"></rect><rect width="2" height="2" x="26" y="50" fill="#292929"></rect><rect width="2" height="2" x="22" y="50" fill="#292929"></rect><rect width="12" height="2" x="7" y="54" fill="#292929"></rect><rect width="2" height="2" x="26" y="54" fill="#292929"></rect><rect width="2" height="2" x="22" y="54" fill="#292929"></rect><rect width="11" height="2" x="42" y="27" fill="#292929"></rect><rect width="2" height="2" x="44" y="46" fill="#292929"></rect><rect width="2" height="2" x="48" y="46" fill="#292929"></rect><rect width="2" height="2" x="52" y="46" fill="#292929"></rect></svg>