<svg xmlns:xlink="http://www.w3.org/1999/xlink" xmlns="http://www.w3.org/2000/svg" data-name="Layer 1" viewBox="0 0 512 512" width="512"  height="512" ><polygon fill="#00EFD1" points="480.54 38.75 480.54 395.19 328.4 473.25 327.62 472.83 327.72 472.64 327.72 116.85 327.88 116.54 328.4 116.81 480.54 38.75"></polygon><path fill="#FEDB41" d="M182.38,39.96l145.5,76.58-.16.31V472.64l-.1.19L182.38,395.19l-.1.05V40.31l-.12-.24Zm112.9,335.41V306.28l-78.56-41.34v69.09Z"></path><polygon fill="#00EFD1" points="295.28 306.28 295.28 375.37 216.72 334.03 216.72 264.94 295.28 306.28"></polygon><path fill="#00ACEA" d="M182.28,40.31V395.24L31.46,473.25V116.81l150.7-76.74ZM148.45,182.78V123.56L63.51,167.14v59.22Z"></path><polygon fill="#00EFD1" points="148.45 123.56 148.45 182.78 63.51 226.36 63.51 167.14 148.45 123.56"></polygon><path fill="#083863" d="M27.59,479.229a7.225,7.225,0,0,0,6.971.239L182.268,403.1h0l142.006,75.9.8.42a7.02,7.02,0,0,0,6.523.064l152.372-78.06A7.224,7.224,0,0,0,488,395.19V38.75a7.3,7.3,0,0,0-10.54-6.228L328.5,108.923,185.668,33.766a7.028,7.028,0,0,0-6.405-.067l-.227.11-.049.023L28.055,110.572A7.224,7.224,0,0,0,24,116.81V473.25A7.223,7.223,0,0,0,27.59,479.229ZM321,461.2,189,390.941V51.5l132,69.18Zm153-70.29L335,462.14v-340.7L474,50.209ZM38,121.1,175,51.429V390.982L38,461.749Z"></path><path fill="#083863" d="M362.956,192.9a6.982,6.982,0,0,0,3.19-.773l84.929-43.58a7,7,0,0,0-6.39-12.456l-84.93,43.58a7,7,0,0,0,3.2,13.229Z"></path><path fill="#083863" d="M362.956,242.242a6.971,6.971,0,0,0,3.19-.774l84.929-43.58a7,7,0,0,0-6.39-12.456l-84.93,43.58a7,7,0,0,0,3.2,13.23Z"></path><path fill="#083863" d="M444.685,234.782l-84.93,43.58a7,7,0,1,0,6.391,12.456l84.929-43.58a7,7,0,0,0-6.39-12.456Z"></path><path fill="#083863" d="M145.255,255.512l-84.941,43.58a7,7,0,1,0,6.391,12.456l84.941-43.58a7,7,0,1,0-6.391-12.456Z"></path><path fill="#083863" d="M145.255,304.862l-84.941,43.58A7,7,0,1,0,66.705,360.9l84.941-43.58a7,7,0,1,0-6.391-12.456Z"></path><path fill="#083863" d="M298.54,231l-78.561-41.34a7,7,0,0,0-6.519,12.39l78.561,41.34A7,7,0,0,0,298.54,231Z"></path><path fill="#083863" d="M213.46,142.825l78.561,41.34a7,7,0,0,0,6.519-12.39l-78.561-41.34a7,7,0,0,0-6.519,12.39Z"></path><path fill="#083863" d="M151.875,117.586a6.788,6.788,0,0,0-6.733-.254L60.5,160.912A6.734,6.734,0,0,0,57,167.14v59.22a6.78,6.78,0,0,0,3.1,5.973,6.58,6.58,0,0,0,3.527,1.027,6.746,6.746,0,0,0,3.134-.772l84.685-43.58A6.773,6.773,0,0,0,155,182.78V123.56A6.8,6.8,0,0,0,151.875,117.586ZM141,178.5,71,214.9V171.416l70-36.4Z"></path><path fill="#083863" d="M298.4,300.085l-78.491-41.34a6.673,6.673,0,0,0-6.7.2A6.841,6.841,0,0,0,210,264.94v69.09a6.875,6.875,0,0,0,3.6,6.2l78.491,41.34a6.853,6.853,0,0,0,3.224.805,6.456,6.456,0,0,0,3.461-1.008A6.858,6.858,0,0,0,302,375.37V306.28A6.873,6.873,0,0,0,298.4,300.085ZM288,363.776,224,329.8V276.534l64,33.972Z"></path></svg>