<svg xmlns:xlink="http://www.w3.org/1999/xlink" xmlns="http://www.w3.org/2000/svg" data-name="Layer 1" viewBox="0 0 64 64" width="172"  height="172" ><path fill="#65788F" d="M54.29,56a5.3,5.3,0,0,0-.06.77v1.08a3.089,3.089,0,0,1-.95,2.23A3.245,3.245,0,0,1,51,61a3.193,3.193,0,0,1-3.23-3.15v-.92a6.262,6.262,0,0,0-.08-.93Z"></path><path fill="#FFE66D" d="M58,46.82a6.729,6.729,0,0,1-1.59,4.34A10.588,10.588,0,0,0,54.29,56h-6.6a10.331,10.331,0,0,0-2.06-4.8,6.675,6.675,0,0,1-1.59-5.1A7.011,7.011,0,0,1,58,46.82Z"></path><polygon fill="#919191" points="52 30 60 30.008 55.996 36 52 30"></polygon><path fill="#65788F" d="M40.507,13.413a8.49,8.49,0,0,0-.079-1.145.979.979,0,0,1,.493-.972l.579-.335A1,1,0,0,0,41.866,9.6l-1.6-2.777A1,1,0,0,0,38.9,6.452l-.586.338a1.024,1.024,0,0,1-1.139-.1A8.42,8.42,0,0,0,35.3,5.606a1.024,1.024,0,0,1-.652-.936V4a1,1,0,0,0-1-1H30.443a1,1,0,0,0-1,1v.67a1.024,1.024,0,0,1-.652.936A8.443,8.443,0,0,0,26.92,6.693a1.024,1.024,0,0,1-1.139.1L25.2,6.452a1,1,0,0,0-1.366.366L22.226,9.6a1,1,0,0,0,.366,1.366l.58.335a.978.978,0,0,1,.492.972,8.337,8.337,0,0,0,0,2.29.98.98,0,0,1-.492.973l-.58.334a1,1,0,0,0-.366,1.366l1.6,2.777a1,1,0,0,0,1.366.366l.585-.338a1.024,1.024,0,0,1,1.139.1,8.478,8.478,0,0,0,1.871,1.086,1.026,1.026,0,0,1,.652.936v.67a1,1,0,0,0,1,1h3.206a1,1,0,0,0,1-1v-.67a1.026,1.026,0,0,1,.652-.936,8.455,8.455,0,0,0,1.871-1.086,1.024,1.024,0,0,1,1.139-.1l.586.338a1,1,0,0,0,1.366-.366l1.6-2.777a1,1,0,0,0-.366-1.366l-.579-.334a.98.98,0,0,1-.493-.973A8.468,8.468,0,0,0,40.507,13.413Z"></path><circle cx="32" cy="13.367" r="4" fill="#E6EEF3"></circle><path d="M33.649,24.826H30.442a2,2,0,0,1-2-2v-.67a9.484,9.484,0,0,1-2.13-1.228l-.617.313a2,2,0,0,1-2.732-.734l-1.6-2.776A2,2,0,0,1,22.093,15l.579-.335a8.758,8.758,0,0,1-.087-1.252,9.353,9.353,0,0,1,.089-1.282l-.581-.3A2,2,0,0,1,21.36,9.1l1.6-2.777A2,2,0,0,1,25.7,5.586l.585.338A9.474,9.474,0,0,1,28.4,4.684L28.442,4a2,2,0,0,1,2-2h3.207a2,2,0,0,1,2,2v.67A9.413,9.413,0,0,1,37.78,5.9l.616-.313a2,2,0,0,1,2.733.731l1.6,2.778A2,2,0,0,1,42,11.827l-.578.334a9.061,9.061,0,0,1,.086,1.252,9.2,9.2,0,0,1-.089,1.282L42,15a2,2,0,0,1,.733,2.73l-1.6,2.778a2,2,0,0,1-2.732.733l-.586-.339a9.481,9.481,0,0,1-2.124,1.241l-.038.683A2,2,0,0,1,33.649,24.826Zm-7.381-5.92a2.076,2.076,0,0,1,1.261.434,7.443,7.443,0,0,0,1.649.958,2.024,2.024,0,0,1,1.264,1.858v.67h3.207v-.67A2.025,2.025,0,0,1,34.914,20.3a7.41,7.41,0,0,0,1.649-.958,2.025,2.025,0,0,1,2.249-.17l.584.339L41,16.731l-.579-.335a1.968,1.968,0,0,1-.984-1.974,7.293,7.293,0,0,0,0-2.016,1.974,1.974,0,0,1,.983-1.976L41,10.1,39.4,7.318l-.585.338a2.026,2.026,0,0,1-2.248-.169,7.366,7.366,0,0,0-1.649-.958A2.028,2.028,0,0,1,33.649,4.67V4H30.442v.67a2.026,2.026,0,0,1-1.264,1.859,7.462,7.462,0,0,0-1.65.957,2.022,2.022,0,0,1-2.248.17L24.7,7.318l-1.6,2.777.579.335a1.966,1.966,0,0,1,.982,1.977,7.383,7.383,0,0,0,0,2.014,1.966,1.966,0,0,1-.982,1.976l-.579.334,1.6,2.777.585-.338A1.977,1.977,0,0,1,26.268,18.906Z"></path><path d="M32,18.367a5,5,0,1,1,5-5A5.006,5.006,0,0,1,32,18.367Zm0-8a3,3,0,1,0,3,3A3,3,0,0,0,32,10.367Z"></path><rect width="2" height="5" x="50" y="51"></rect><path d="M51,52a1,1,0,0,1-.707-.293l-2-2,1.414-1.414L51,49.586l1.293-1.293,1.414,1.414-2,2A1,1,0,0,1,51,52Z"></path><polygon fill="#97D2FB" points="7.571 61 3 56.5 3 43 19 43 19 61 7.571 61"></polygon><polyline fill="#E6EEF3" points="7.571 61 8.714 55.286 3 56.429"></polyline><path d="M19,62H7.571a1,1,0,0,1-.7-.288L2.3,57.212A.993.993,0,0,1,2,56.5V43a1,1,0,0,1,1-1H19a1,1,0,0,1,1,1V61A1,1,0,0,1,19,62ZM7.98,60H18V44H4V56.081Z"></path><path d="M8.552,61.2,6.591,60.8l.848-4.243L3.2,57.409,2.8,55.448l5.714-1.143a1,1,0,0,1,1.176,1.177Z"></path><rect width="10" height="2" x="6" y="46"></rect><rect width="10" height="2" x="6" y="51"></rect><rect width="4" height="2" x="12" y="56"></rect><path d="M8.085,39.293a24.984,24.984,0,0,1,4.134-22.565L13.8,17.952A22.985,22.985,0,0,0,10,38.707Z"></path><path d="M32,57c-.792,0-1.594-.037-2.449-.114l.178-1.992c.8.071,1.539.106,2.271.106a22.775,22.775,0,0,0,9.582-2.09l.836,1.817A24.771,24.771,0,0,1,32,57Z"></path><path d="M54.913,30.082a22.914,22.914,0,0,0-9.5-16.76L46.584,11.7a24.912,24.912,0,0,1,10.323,18.22Z"></path><polygon fill="#919191" points="30.667 52.24 28.486 59.937 23.807 54.455 30.667 52.24"></polygon><polygon fill="#919191" points="16.251 19.876 9.95 14.947 16.794 12.688 16.251 19.876"></polygon><path d="M56,37h0a1,1,0,0,1-.831-.446l-4-6A1,1,0,0,1,52,29h0l8,.008a1,1,0,0,1,.83,1.555l-4,5.993A1,1,0,0,1,56,37Zm-2.127-6L56,34.2l2.133-3.192Z"></path><path d="M28.486,60.937a1,1,0,0,1-.76-.351L23.046,55.1a1,1,0,0,1,.453-1.6l6.86-2.215a1,1,0,0,1,1.27,1.224l-2.181,7.7a1,1,0,0,1-.748.7A1.031,1.031,0,0,1,28.486,60.937Zm-2.945-5.991,2.492,2.92,1.162-4.1Z"></path><path d="M16.251,20.876a1,1,0,0,1-.616-.212l-6.3-4.929A1,1,0,0,1,9.637,14l6.843-2.26a1,1,0,0,1,1.311,1.025l-.543,7.189a1,1,0,0,1-1,.924Zm-4.213-5.565L15.4,17.937l.289-3.83Z"></path><rect width="2" height="2" x="60" y="45"></rect><rect width="2" height="2" x="58" y="40" transform="rotate(-45 59 41)"></rect><rect width="2" height="2" x="40" y="45"></rect><rect width="2" height="2" x="43" y="39" transform="rotate(-45 44 40)"></rect><rect width="2" height="2" x="50" y="36"></rect><path d="M51,62a4.2,4.2,0,0,1-4.23-4.15v-.924a9.18,9.18,0,0,0-1.894-5.071A7.655,7.655,0,0,1,43.044,46a7.925,7.925,0,0,1,7.05-6.946,8.138,8.138,0,0,1,6.314,2.01A7.7,7.7,0,0,1,57.171,51.8a9.188,9.188,0,0,0-1.941,4.97V57.85A4.2,4.2,0,0,1,51,62Zm-.015-21a6.152,6.152,0,0,0-.676.037,5.913,5.913,0,0,0-5.277,5.168,5.678,5.678,0,0,0,1.36,4.344,11.172,11.172,0,0,1,2.378,6.376v.924a2.231,2.231,0,0,0,4.46,0V56.771a11.167,11.167,0,0,1,2.414-6.261A5.646,5.646,0,0,0,57,46.825a5.765,5.765,0,0,0-1.928-4.278A6.115,6.115,0,0,0,50.985,41Z"></path><rect width="6" height="2" x="48" y="55"></rect></svg>